<?xml version="1.0" encoding="UTF-8"?>
<svg version="1.1" xmlns="http://www.w3.org/2000/svg" width="325" height="222">
<path d="M0 0 C3.96 0 7.92 0 12 0 C14.7573213 3.57968028 16.29521926 5.99825153 18 10 C18.61875 11.134375 19.2375 12.26875 19.875 13.4375 C21 16 21 16 21 19 C21.66 19 22.32 19 23 19 C23.67408308 20.26691507 24.33900497 21.53870749 25 22.8125 C25.556875 23.87404297 25.556875 23.87404297 26.125 24.95703125 C27 27 27 27 27 30 C31.08241826 26.53585444 32.81927313 22.59775761 34.9375 17.8125 C35.63172136 16.28797043 36.32832113 14.76452158 37.02734375 13.2421875 C37.36233887 12.51225586 37.69733398 11.78232422 38.04248047 11.03027344 C39.83194923 7.23597914 41.89155672 3.62388689 44 0 C48.29 0 52.58 0 57 0 C57.02255359 8.58806111 57.04091657 17.17609936 57.05181217 25.76418209 C57.05704036 29.751572 57.06413684 33.73894067 57.07543945 37.72631836 C57.08627061 41.57125114 57.09227732 45.41616345 57.09487724 49.26111031 C57.09673108 50.73118983 57.10035091 52.20126818 57.10573006 53.67133904 C57.11294355 55.72354467 57.11399081 57.77566467 57.11352539 59.82788086 C57.115746 60.99814316 57.11796661 62.16840546 57.12025452 63.37413025 C57 66 57 66 56 67 C52.37 67 48.74 67 45 67 C44.67 54.13 44.34 41.26 44 28 C42.411875 30.825625 40.82375 33.65125 39.1875 36.5625 C38.6927417 37.43849854 38.1979834 38.31449707 37.68823242 39.21704102 C35.70586875 42.76541989 33.84720288 46.23961686 32.36328125 50.02734375 C31.91339844 51.00832031 31.46351562 51.98929688 31 53 C29.515 53.495 29.515 53.495 28 54 C24.68705767 52.34352883 23.73338437 48.72568716 22.1875 45.5 C19.3048963 39.54374284 16.22147843 33.79866117 13 28 C12.67 40.87 12.34 53.74 12 67 C8.04 67 4.08 67 0 67 C0 44.89 0 22.78 0 0 Z " fill="#2174B2" transform="translate(9,72)"/>
<path d="M0 0 C4.29 0 8.58 0 13 0 C13 9.24 13 18.48 13 28 C23.395 27.505 23.395 27.505 34 27 C34 18.09 34 9.18 34 0 C37.96 0 41.92 0 46 0 C46 22.11 46 44.22 46 67 C42.04 67 38.08 67 34 67 C34 58.09 34 49.18 34 40 C27.07 40 20.14 40 13 40 C13 48.91 13 57.82 13 67 C8.71 67 4.42 67 0 67 C0 44.89 0 22.78 0 0 Z " fill="#A1A1A2" transform="translate(263,72)"/>
<path d="M0 0 C12.54 0 25.08 0 38 0 C38 3.96 38 7.92 38 12 C29.75 12 21.5 12 13 12 C13 16.95 13 21.9 13 27 C20.26 27 27.52 27 35 27 C35 31.29 35 35.58 35 40 C27.74 40 20.48 40 13 40 C13 44.95 13 49.9 13 55 C21.25 55 29.5 55 38 55 C38 58.96 38 62.92 38 67 C25.79 67 13.58 67 1 67 C-0.10135545 63.69593365 -0.12036063 61.26356307 -0.11352539 57.78442383 C-0.11341209 55.86277153 -0.11341209 55.86277153 -0.11329651 53.90229797 C-0.10818987 52.50387534 -0.10297387 51.1054531 -0.09765625 49.70703125 C-0.09579089 48.27642364 -0.09436754 46.84581539 -0.09336853 45.41520691 C-0.08955267 41.65213249 -0.07973032 37.88909675 -0.06866455 34.1260376 C-0.05663068 29.60976206 -0.05204376 25.09347357 -0.04621124 20.57718658 C-0.03651807 13.7180975 -0.01735503 6.85909326 0 0 Z " fill="#BABABB" transform="translate(165,72)"/>
<path d="M0 0 C1.44439453 -0.01063477 1.44439453 -0.01063477 2.91796875 -0.02148438 C8.30265465 0.02665931 12.24819567 0.38968445 16.875 3.4375 C21.04209311 7.83609828 22.97872917 11.70908492 23 17.75 C22.95875 18.966875 22.9175 20.18375 22.875 21.4375 C18.915 21.4375 14.955 21.4375 10.875 21.4375 C10.565625 20.303125 10.25625 19.16875 9.9375 18 C9.24575469 14.64974901 9.24575469 14.64974901 7.875 13.4375 C5.1976862 13.33768786 2.55195825 13.29870125 -0.125 13.3125 C-0.87523437 13.30863281 -1.62546875 13.30476563 -2.3984375 13.30078125 C-6.06106117 12.96074459 -6.06106117 12.96074459 -9.125 14.4375 C-9.21368299 17.39455321 -9.24020296 20.32815056 -9.22265625 23.28515625 C-9.22053383 24.61479652 -9.22053383 24.61479652 -9.21836853 25.97129822 C-9.21275215 28.81423254 -9.20019691 31.65708931 -9.1875 34.5 C-9.18248711 36.42252491 -9.17792384 38.34505104 -9.17382812 40.26757812 C-9.16277741 44.99091549 -9.14550183 49.71419458 -9.125 54.4375 C-6.52055652 54.49144705 -3.91723002 54.53114469 -1.3125 54.5625 C-0.20551758 54.58763672 -0.20551758 54.58763672 0.92382812 54.61328125 C4.78746426 54.64824628 6.58403668 54.63147555 9.875 52.4375 C10.205 51.1175 10.535 49.7975 10.875 48.4375 C14.835 48.4375 18.795 48.4375 22.875 48.4375 C22.43783419 55.6507359 21.45479059 60.19331478 15.875 65.25 C11.03821497 68.12184111 5.58296033 67.69032842 0.125 67.75 C-1.17824219 67.79350586 -1.17824219 67.79350586 -2.5078125 67.83789062 C-9.3447793 67.90461778 -14.32812345 66.43494245 -19.72167969 62.17700195 C-23.75557288 57.17674291 -23.44521402 51.03954833 -23.4609375 44.9453125 C-23.4675943 44.04054169 -23.4742511 43.13577087 -23.48110962 42.20358276 C-23.49120231 40.29573591 -23.49592769 38.38785399 -23.49560547 36.47998047 C-23.49997589 33.57850329 -23.53632341 30.67855199 -23.57421875 27.77734375 C-23.58008838 25.91667182 -23.58405679 24.05599273 -23.5859375 22.1953125 C-23.60030853 21.33672638 -23.61467957 20.47814026 -23.62948608 19.59353638 C-23.58636935 13.84136954 -22.5755535 9.15415586 -19.125 4.4375 C-13.33338184 -0.11878645 -7.11482808 -0.14882569 0 0 Z " fill="#C3C3C4" transform="translate(233.125,71.5625)"/>
<path d="M0 0 C13.86 0 27.72 0 42 0 C42 3.96 42 7.92 42 12 C37.05 12 32.1 12 27 12 C27 30.15 27 48.3 27 67 C23.04 67 19.08 67 15 67 C15 48.85 15 30.7 15 12 C10.05 12 5.1 12 0 12 C0 8.04 0 4.08 0 0 Z " fill="#A3A3A4" transform="translate(117,72)"/>
<path d="M0 0 C3.63 0 7.26 0 11 0 C11.04943711 7.88369837 11.08573752 15.7673065 11.10986328 23.65112305 C11.11879115 26.33313646 11.13270718 29.01505515 11.15087891 31.69702148 C11.17513719 35.5519481 11.18648559 39.40672973 11.1953125 43.26171875 C11.20563507 44.46084396 11.21595764 45.65996918 11.22659302 46.89543152 C11.22681961 48.5766082 11.22681961 48.5766082 11.22705078 50.29174805 C11.231492 51.27547897 11.23593323 52.2592099 11.24050903 53.27275085 C10.92141738 56.89108658 10.06152248 59.82907269 7.59765625 62.546875 C2.240542 66.74532586 -1.68395244 67.20494615 -8.3125 67.25 C-9.05951172 67.270625 -9.80652344 67.29125 -10.57617188 67.3125 C-16.6384764 67.35507984 -20.70365581 65.99419364 -25.375 61.9375 C-27.80524582 57.54436333 -27.26546519 53.97747239 -27 49 C-23.7 49 -20.4 49 -17 49 C-16.01 50.98 -15.02 52.96 -14 55 C-12.20866022 55.05391993 -10.41686101 55.09275571 -8.625 55.125 C-7.12839844 55.15980469 -7.12839844 55.15980469 -5.6015625 55.1953125 C-2.83737827 55.27216848 -2.83737827 55.27216848 -1 53 C-0.66883262 50.65590429 -0.66883262 50.65590429 -0.68115234 47.90771484 C-0.66128265 46.84676605 -0.64141296 45.78581726 -0.62094116 44.69271851 C-0.60938995 43.54373077 -0.59783875 42.39474304 -0.5859375 41.2109375 C-0.56657135 40.03737701 -0.5472052 38.86381653 -0.5272522 37.6546936 C-0.46732336 33.89487039 -0.42101754 30.13501677 -0.375 26.375 C-0.3368325 23.83071558 -0.29778151 21.28644425 -0.2578125 18.7421875 C-0.16161079 12.49489759 -0.07762888 6.24754719 0 0 Z " fill="#195086" transform="translate(99,72)"/>
<path d="M0 0 C3.63 0 7.26 0 11 0 C11 8.91 11 17.82 11 27 C15.95 27 20.9 27 26 27 C26 27.66 26 28.32 26 29 C24 30.625 24 30.625 22 32 C21.34 31.67 20.68 31.34 20 31 C19.67 31.66 19.34 32.32 19 33 C17.68 33.99 16.36 34.98 15 36 C20.94 36.33 26.88 36.66 33 37 C33 37.33 33 37.66 33 38 C25.74 38 18.48 38 11 38 C11 46.91 11 55.82 11 65 C7.37 65 3.74 65 0 65 C0 43.55 0 22.1 0 0 Z " fill="#B9B9B9" transform="translate(264,73)"/>
<path d="M0 0 C0.33 0 0.66 0 1 0 C1 13.2 1 26.4 1 40 C1.66 40 2.32 40 3 40 C3 40.66 3 41.32 3 42 C3.66 42.33 4.32 42.66 5 43 C5.66666667 44.33333333 6.33333333 45.66666667 7 47 C7.66 47.33 8.32 47.66 9 48 C8.67 46.02 8.34 44.04 8 42 C7.34 42 6.68 42 6 42 C6.33 41.34 6.66 40.68 7 40 C7.66 40 8.32 40 9 40 C9.33 40.66 9.66 41.32 10 42 C10.99 42.33 11.98 42.66 13 43 C13.33 42.01 13.66 41.02 14 40 C14 40.66 14 41.32 14 42 C16.60444348 42.05394705 19.20776998 42.09364469 21.8125 42.125 C22.91948242 42.15013672 22.91948242 42.15013672 24.04882812 42.17578125 C27.91246426 42.21074628 29.70903668 42.19397555 33 40 C33.33 38.68 33.66 37.36 34 36 C37.96 36 41.92 36 46 36 C45.56283419 43.2132359 44.57979059 47.75581478 39 52.8125 C34.16321497 55.68434111 28.70796033 55.25282842 23.25 55.3125 C22.38117188 55.34150391 21.51234375 55.37050781 20.6171875 55.40039062 C13.7802207 55.46711778 8.79687655 53.99744245 3.40332031 49.73950195 C-0.71981923 44.62861656 -0.26751579 38.43597497 -0.1953125 32.2265625 C-0.1924826 31.3028183 -0.18965271 30.3790741 -0.18673706 29.42733765 C-0.17559179 26.49309024 -0.15049765 23.5591543 -0.125 20.625 C-0.11496289 18.62891068 -0.10583832 16.63281654 -0.09765625 14.63671875 C-0.07567097 9.75769351 -0.04118017 4.87889946 0 0 Z " fill="#8B8B8B" transform="translate(210,84)"/>
<path d="M0 0 C13.86 0 27.72 0 42 0 C42 3.96 42 7.92 42 12 C36.72 12 31.44 12 26 12 C25.67 13.32 25.34 14.64 25 16 C22.01758453 16.77321882 19.02419525 17.41196203 16 18 C16 16.02 16 14.04 16 12 C10.72 12 5.44 12 0 12 C0 8.04 0 4.08 0 0 Z " fill="#D2D2D2" transform="translate(117,72)"/>
<path d="M0 0 C10.07269514 -0.78150221 10.07269514 -0.78150221 13.484375 2.09375 C13.98453125 3.0528125 14.4846875 4.011875 15 5 C15.56203125 6.0415625 16.1240625 7.083125 16.703125 8.15625 C17.21359375 9.2596875 17.7240625 10.363125 18.25 11.5 C18.77078125 12.6034375 19.2915625 13.706875 19.828125 14.84375 C20.94544982 17.85307818 21.25984148 19.83465838 21 23 C21.66 23 22.32 23 23 23 C22 26 22 26 20 29 C18.68 29 17.36 29 16 29 C15.34 27.68 14.68 26.36 14 25 C12.68 25 11.36 25 10 25 C8.71553081 27.56893838 8.67022856 29.76576337 8.4375 32.625 C8.35371094 33.62789062 8.26992188 34.63078125 8.18359375 35.6640625 C8.12300781 36.43492188 8.06242187 37.20578125 8 38 C5.03 38.495 5.03 38.495 2 39 C2.04125 37.989375 2.0825 36.97875 2.125 35.9375 C2.19518218 32.10463773 2.19518218 32.10463773 1 29.0625 C-0.66152464 23.53612457 -0.20943231 17.77467051 -0.125 12.0625 C-0.11597656 10.90169922 -0.10695313 9.74089844 -0.09765625 8.54492188 C-0.07421162 5.69639892 -0.04139522 2.84830922 0 0 Z " fill="#308EC2" transform="translate(10,73)"/>
<path d="M0 0 C3.3 0 6.6 0 10 0 C10.02483991 5.69254239 10.04292602 11.38505276 10.05493164 17.07763672 C10.05994013 19.01156159 10.06674882 20.94548271 10.07543945 22.87939453 C10.08765831 25.6696058 10.09326329 28.45976672 10.09765625 31.25 C10.10281754 32.10553467 10.10797882 32.96106934 10.11329651 33.8425293 C10.1137702 38.98671273 9.74169581 43.90821979 9 49 C6.525 49.495 6.525 49.495 4 50 C4 50.99 4 51.98 4 53 C2.68 53 1.36 53 0 53 C0 35.51 0 18.02 0 0 Z " fill="#2375B3" transform="translate(99,73)"/>
<path d="M0 0 C3.96 0 7.92 0 12 0 C12 0.33 12 0.66 12 1 C8.37 1 4.74 1 1 1 C1.11483717 4.9588604 1.2415761 8.9167575 1.375 12.875 C1.4059375 13.98359375 1.436875 15.0921875 1.46875 16.234375 C1.68312997 22.30847412 2.20037403 27.97995943 3.68212891 33.88330078 C4.03322564 36.2212491 3.72058219 37.76739724 3 40 C5.97 39.505 5.97 39.505 9 39 C8.96519531 38.25234375 8.93039063 37.5046875 8.89453125 36.734375 C8.86746094 35.74953125 8.84039062 34.7646875 8.8125 33.75 C8.76029297 32.28820312 8.76029297 32.28820312 8.70703125 30.796875 C9.03924798 27.62531258 9.88672279 26.32959693 12 24 C12.91866251 26.75598752 13.101683 28.19627651 13.02172852 31.01245117 C12.99158409 32.2133564 12.99158409 32.2133564 12.96083069 33.43852234 C12.92027809 34.72772331 12.92027809 34.72772331 12.87890625 36.04296875 C12.85529526 36.9265657 12.83168427 37.81016266 12.80735779 38.72053528 C12.73077765 41.54302258 12.64672891 44.3652316 12.5625 47.1875 C12.50927366 49.10089784 12.4565333 51.01430926 12.40429688 52.92773438 C12.2751701 57.61866584 12.13934467 62.30936139 12 67 C8.04 67 4.08 67 0 67 C0 44.89 0 22.78 0 0 Z " fill="#194F7C" transform="translate(9,72)"/>
<path d="M0 0 C0.33 0 0.66 0 1 0 C1.02312635 8.5880572 1.04091658 17.17610149 1.05181217 25.76418209 C1.05704036 29.751572 1.06413684 33.73894067 1.07543945 37.72631836 C1.08627061 41.57125114 1.09227732 45.41616345 1.09487724 49.26111031 C1.09673108 50.73118983 1.10035091 52.20126818 1.10573006 53.67133904 C1.11294355 55.72354467 1.11399081 57.77566467 1.11352539 59.82788086 C1.115746 60.99814316 1.11796661 62.16840546 1.12025452 63.37413025 C1 66 1 66 0 67 C-3.63 67 -7.26 67 -11 67 C-11.33 52.48 -11.66 37.96 -12 23 C-11.34 23 -10.68 23 -10 23 C-9.65971473 27.27030858 -9.32906591 31.54131339 -9 35.8125 C-8.85691406 37.6059082 -8.85691406 37.6059082 -8.7109375 39.43554688 C-7.23971037 58.7191311 -7.23971037 58.7191311 -9 64 C-6.69 64 -4.38 64 -2 64 C-2.00523682 63.41621582 -2.01047363 62.83243164 -2.01586914 62.23095703 C-2.03694081 59.52898276 -2.04975459 56.82702589 -2.0625 54.125 C-2.07087891 53.2071875 -2.07925781 52.289375 -2.08789062 51.34375 C-2.10324498 46.98311393 -2.02397281 42.70967255 -1.53125 38.375 C-0.69724291 30.9051974 -0.63520377 23.38290143 -0.4375 15.875 C-0.39420698 14.33071997 -0.35058967 12.786449 -0.30664062 11.2421875 C-0.20069059 7.49488861 -0.0991213 3.74748647 0 0 Z " fill="#24517D" transform="translate(65,72)"/>
<path d="M0 0 C0.33 0 0.66 0 1 0 C1 13.2 1 26.4 1 40 C1.66 40 2.32 40 3 40 C3 40.66 3 41.32 3 42 C3.66 42.33 4.32 42.66 5 43 C5.66666667 44.33333333 6.33333333 45.66666667 7 47 C7.66 47.33 8.32 47.66 9 48 C8.67 46.02 8.34 44.04 8 42 C7.34 42 6.68 42 6 42 C6.33 41.34 6.66 40.68 7 40 C7.66 40 8.32 40 9 40 C9.33 40.66 9.66 41.32 10 42 C10.99 42.33 11.98 42.66 13 43 C13.33 42.01 13.66 41.02 14 40 C14 40.66 14 41.32 14 42 C19.94 42.33 25.88 42.66 32 43 C31.67 43.66 31.34 44.32 31 45 C26.05 45 21.1 45 16 45 C15.505 47.475 15.505 47.475 15 50 C11.50875983 52.32749345 10.10777749 52.50299316 6 52 C2.21729751 49.2680482 1.15530471 46.43064666 0 42 C-0.25989491 38.73890468 -0.23333223 35.49622186 -0.1953125 32.2265625 C-0.1924826 31.3028183 -0.18965271 30.3790741 -0.18673706 29.42733765 C-0.17559179 26.49309024 -0.15049765 23.5591543 -0.125 20.625 C-0.11496289 18.62891068 -0.10583832 16.63281654 -0.09765625 14.63671875 C-0.07567097 9.75769351 -0.04118017 4.87889946 0 0 Z " fill="#6E6E70" transform="translate(210,84)"/>
<path d="M0 0 C3.96 0 7.92 0 12 0 C12 6.93 12 13.86 12 21 C11.67 21 11.34 21 11 21 C10.505 11.595 10.505 11.595 10 2 C9.34 2 8.68 2 8 2 C8 2.66 8 3.32 8 4 C7.01 4 6.02 4 5 4 C4.34 5.65 3.68 7.3 3 9 C1.68 9 0.36 9 -1 9 C-2.57077907 14.02649303 -3.44854729 18.76119922 -4 24 C-4.66 23.67 -5.32 23.34 -6 23 C-6 22.01 -6 21.02 -6 20 C-6.66 19.67 -7.32 19.34 -8 19 C-8.12375 19.53625 -8.2475 20.0725 -8.375 20.625 C-9.12605683 23.47901595 -9.95659229 26.23803841 -11 29 C-11.66 29.33 -12.32 29.66 -13 30 C-12.5130511 24.35284638 -10.98338058 20.4533985 -8.1875 15.5625 C-7.46152403 14.25039566 -6.73625707 12.93789875 -6.01171875 11.625 C-5.66415527 11.00238281 -5.3165918 10.37976563 -4.95849609 9.73828125 C-3.19769984 6.544988 -1.60363436 3.27408682 0 0 Z " fill="#3178A2" transform="translate(53,72)"/>
<path d="M0 0 C3.63 0 7.26 0 11 0 C11 8.91 11 17.82 11 27 C15.95 27 20.9 27 26 27 C26 27.66 26 28.32 26 29 C24 30.625 24 30.625 22 32 C21.34 31.67 20.68 31.34 20 31 C19.67 31.66 19.34 32.32 19 33 C18.34 32.34 17.68 31.68 17 31 C13.9254644 31.7763932 13.9254644 31.7763932 12 34 C9.54713704 30.32070555 9.76771122 28.52622093 9.8046875 24.14453125 C9.8075174 23.48289474 9.81034729 22.82125824 9.81326294 22.13957214 C9.82444082 20.03036263 9.84954019 17.92158075 9.875 15.8125 C9.88503293 14.38086552 9.89415824 12.94922436 9.90234375 11.51757812 C9.92437205 8.01158023 9.95888515 4.50583187 10 1 C7.36 1.33 4.72 1.66 2 2 C1.67 11.24 1.34 20.48 1 30 C0.67 30 0.34 30 0 30 C0 20.1 0 10.2 0 0 Z " fill="#DBDBDC" transform="translate(264,73)"/>
<path d="M0 0 C3.3 0 6.6 0 10 0 C10 0.66 10 1.32 10 2 C7.36 2 4.72 2 2 2 C2.23396484 2.83144531 2.23396484 2.83144531 2.47265625 3.6796875 C2.66730469 4.40414062 2.86195312 5.12859375 3.0625 5.875 C3.25972656 6.59429687 3.45695312 7.31359375 3.66015625 8.0546875 C4 10 4 10 3 12 C3.66 12 4.32 12 5 12 C5.33 12.66 5.66 13.32 6 14 C13.77403935 16.59134645 23.98720569 15.30821132 32 14 C32.33 12.35 32.66 10.7 33 9 C33.99 9 34.98 9 36 9 C36.33 8.34 36.66 7.68 37 7 C36.77581061 10.92331434 36.04047908 11.96128088 33.125 14.75 C28.3498573 18.18810274 24.375592 18.21133837 18.6875 18.25 C17.94048828 18.270625 17.19347656 18.29125 16.42382812 18.3125 C10.3615236 18.35507984 6.29634419 16.99419364 1.625 12.9375 C-0.80524582 8.54436333 -0.26546519 4.97747239 0 0 Z " fill="#1F4570" transform="translate(72,121)"/>
<path d="M0 0 C7.59 0 15.18 0 23 0 C23 0.33 23 0.66 23 1 C15.74 1 8.48 1 1 1 C1 5.95 1 10.9 1 16 C9.25 16 17.5 16 26 16 C26 19.96 26 23.92 26 28 C13.79 28 1.58 28 -11 28 C-11 26.68 -11 25.36 -11 24 C-10.34 24.33 -9.68 24.66 -9 25 C-9 25.66 -9 26.32 -9 27 C2.22 27 13.44 27 25 27 C25 23.7 25 20.4 25 17 C16.75 17 8.5 17 0 17 C0 11.39 0 5.78 0 0 Z " fill="#545556" transform="translate(177,111)"/>
<path d="M0 0 C3.3 0 6.6 0 10 0 C10 6.6 10 13.2 10 20 C9.67 20 9.34 20 9 20 C8.67 14.39 8.34 8.78 8 3 C7.01 3.33 6.02 3.66 5 4 C4.814375 5.2065625 4.814375 5.2065625 4.625 6.4375 C4.41875 7.283125 4.2125 8.12875 4 9 C3.01 9.495 3.01 9.495 2 10 C1.59270772 12.32156597 1.25561323 14.6568787 1 17 C0.67 17 0.34 17 0 17 C0 11.39 0 5.78 0 0 Z " fill="#4799C3" transform="translate(99,73)"/>
<path d="M0 0 C1.32 0.33 2.64 0.66 4 1 C4.66 3.31 5.32 5.62 6 8 C6.5775 7.855625 7.155 7.71125 7.75 7.5625 C9.83333333 7.04166667 11.91666667 6.52083333 14 6 C14.33 6.66 14.66 7.32 15 8 C13.75 11.5625 13.75 11.5625 12 15 C11.01 15.33 10.02 15.66 9 16 C5.79695512 14.39847756 4.87921189 11.10625869 3.375 8 C3.05015625 7.34515625 2.7253125 6.6903125 2.390625 6.015625 C0 1.15401786 0 1.15401786 0 0 Z " fill="#1F5B92" transform="translate(28,110)"/>
<path d="M0 0 C0.309375 0.639375 0.61875 1.27875 0.9375 1.9375 C1.8345163 3.93610821 1.8345163 3.93610821 3 5 C5.18292774 5.23481693 7.37203174 5.41363323 9.5625 5.5625 C10.76003906 5.64628906 11.95757812 5.73007813 13.19140625 5.81640625 C14.11824219 5.87699219 15.04507813 5.93757813 16 6 C16 6.33 16 6.66 16 7 C13.70839681 7.02692484 11.41670454 7.04636124 9.125 7.0625 C7.84882812 7.07410156 6.57265625 7.08570313 5.2578125 7.09765625 C2 7 2 7 0 6 C-0.33 6.99 -0.66 7.98 -1 9 C-1.598125 8.67 -2.19625 8.34 -2.8125 8 C-5.05386471 6.79212012 -5.05386471 6.79212012 -8 7 C-8 5.02 -8 3.04 -8 1 C-5.36 0.67 -2.72 0.34 0 0 Z " fill="#1D5A94" transform="translate(82,122)"/>
<path d="M0 0 C3.96 0 7.92 0 12 0 C12 6.93 12 13.86 12 21 C11.67 21 11.34 21 11 21 C10.67 14.73 10.34 8.46 10 2 C9.34 2 8.68 2 8 2 C8 2.66 8 3.32 8 4 C7.01 4 6.02 4 5 4 C4.67 4.66 4.34 5.32 4 6 C3.34 6 2.68 6 2 6 C1.67 6.66 1.34 7.32 1 8 C0.34 8 -0.32 8 -1 8 C-0.67 5.36 -0.34 2.72 0 0 Z " fill="#479FC4" transform="translate(53,72)"/>
<path d="M0 0 C2.54108635 5.0821727 3 9.35571482 3 15 C5.04574461 14.48027608 5.04574461 14.48027608 7 13 C7.92499783 9.9017122 7.92499783 9.9017122 8.25 6.375 C8.39953125 5.18648438 8.5490625 3.99796875 8.703125 2.7734375 C8.80109375 1.85820313 8.8990625 0.94296875 9 0 C9.33 0 9.66 0 10 0 C10 5.28 10 10.56 10 16 C6.7 16 3.4 16 0 16 C0 10.72 0 5.44 0 0 Z " fill="#235687" transform="translate(10,122)"/>
<path d="M0 0 C11.88 0 23.76 0 36 0 C36 0.33 36 0.66 36 1 C24.78 1.33 13.56 1.66 2 2 C2 7.94 2 13.88 2 20 C1.01 20.33 0.02 20.66 -1 21 C-0.67 14.07 -0.34 7.14 0 0 Z " fill="#F5F5F7" transform="translate(166,73)"/>
<path d="M0 0 C0 3.63 0 7.26 0 11 C-0.33 11 -0.66 11 -1 11 C-1 9.02 -1 7.04 -1 5 C-1.66 5 -2.32 5 -3 5 C-3 6.32 -3 7.64 -3 9 C-4.32 8.67 -5.64 8.34 -7 8 C-7.33 8.66 -7.66 9.32 -8 10 C-7.51171875 3.9453125 -7.51171875 3.9453125 -7 2 C-4 0 -4 0 0 0 Z " fill="#2B83BF" transform="translate(56,90)"/>
<path d="M0 0 C0.33 0 0.66 0 1 0 C1 7.92 1 15.84 1 24 C0.67 24 0.34 24 0 24 C-0.20496094 23.37351562 -0.40992188 22.74703125 -0.62109375 22.1015625 C-1.02521484 20.87566406 -1.02521484 20.87566406 -1.4375 19.625 C-1.70433594 18.81289062 -1.97117187 18.00078125 -2.24609375 17.1640625 C-2.95179729 14.98968201 -2.95179729 14.98968201 -4 13 C-3.01 13 -2.02 13 -1 13 C-1.01160156 12.22914062 -1.02320313 11.45828125 -1.03515625 10.6640625 C-1.04869141 9.15972656 -1.04869141 9.15972656 -1.0625 7.625 C-1.07410156 6.62726563 -1.08570313 5.62953125 -1.09765625 4.6015625 C-1 2 -1 2 0 0 Z " fill="#3272A3" transform="translate(19,98)"/>
<path d="M0 0 C0.99 0.99 1.98 1.98 3 3 C1.35 6.3 -0.3 9.6 -2 13 C-4 9 -4 9 -4 6 C-4.33 5.34 -4.66 4.68 -5 4 C-3.35 2.68 -1.7 1.36 0 0 Z " fill="#206395" transform="translate(46,104)"/>
<path d="M0 0 C0.66 0.33 1.32 0.66 2 1 C2 1.66 2 2.32 2 3 C13.22 3 24.44 3 36 3 C36 3.33 36 3.66 36 4 C24.12 4 12.24 4 0 4 C0 2.68 0 1.36 0 0 Z " fill="#646566" transform="translate(166,135)"/>
<path d="M0 0 C1.32 0 2.64 0 4 0 C4 0.66 4 1.32 4 2 C4.66 2 5.32 2 6 2 C5 5 5 5 3 8 C1.68 8 0.36 8 -1 8 C-1.625 5.6875 -1.625 5.6875 -2 3 C-1.34 2.01 -0.68 1.02 0 0 Z " fill="#2981BF" transform="translate(27,94)"/>
<path d="M0 0 C3.3 0 6.6 0 10 0 C10 0.66 10 1.32 10 2 C7.36 2 4.72 2 2 2 C2.66 4.64 3.32 7.28 4 10 C2.68 10 1.36 10 0 10 C0 6.7 0 3.4 0 0 Z " fill="#2D547A" transform="translate(72,121)"/>
<path d="M0 0 C0 0.99 0 1.98 0 3 C-2.9063515 5.80255323 -3.78825048 6 -8 6 C-8 4.35 -8 2.7 -8 1 C-4.93251126 -0.86240388 -3.40254489 -1.2151946 0 0 Z " fill="#2577B5" transform="translate(35,101)"/>
<path d="M0 0 C5 6.36363636 5 6.36363636 5 11 C6.32 10.01 7.64 9.02 9 8 C9 9.32 9 10.64 9 12 C8.360625 12.12375 7.72125 12.2475 7.0625 12.375 C6.381875 12.58125 5.70125 12.7875 5 13 C4.67 13.66 4.34 14.32 4 15 C3.67 13.35 3.34 11.7 3 10 C2.01 9.67 1.02 9.34 0 9 C0.33 8.01 0.66 7.02 1 6 C0.67 5.67 0.34 5.34 0 5 C-0.04063832 3.33382885 -0.042721 1.66611905 0 0 Z " fill="#2F6C94" transform="translate(31,91)"/>
<path d="M0 0 C0.33 0 0.66 0 1 0 C2.40454548 6.11980533 3.23268915 11.71739294 3 18 C2.67 17.34 2.34 16.68 2 16 C1.34 16 0.68 16 0 16 C0 10.72 0 5.44 0 0 Z " fill="#3474A7" transform="translate(10,98)"/>
<path d="M0 0 C3.63 0 7.26 0 11 0 C10.67 0.99 10.34 1.98 10 3 C8.35 3 6.7 3 5 3 C4.34 4.65 3.68 6.3 3 8 C2.67 8 2.34 8 2 8 C2 5.69 2 3.38 2 1 C1.34 0.67 0.68 0.34 0 0 Z " fill="#48A9CF" transform="translate(10,73)"/>
<path d="M0 0 C0.33 0 0.66 0 1 0 C1.04898438 0.63808594 1.09796875 1.27617188 1.1484375 1.93359375 C1.22320312 2.75988281 1.29796875 3.58617188 1.375 4.4375 C1.44460937 5.26121094 1.51421875 6.08492188 1.5859375 6.93359375 C1.72257812 7.61550781 1.85921875 8.29742187 2 9 C2.66 9.33 3.32 9.66 4 10 C3.690625 10.70125 3.38125 11.4025 3.0625 12.125 C1.96697322 15.08936657 1.43577008 17.87698108 1 21 C0.67 21 0.34 21 0 21 C0 14.07 0 7.14 0 0 Z " fill="#2966A0" transform="translate(99,105)"/>
<path d="M0 0 C3 2 3 2 3.51171875 3.9453125 C3.67447917 5.96354167 3.83723958 7.98177083 4 10 C5.32 10.33 6.64 10.66 8 11 C6.68 11.33 5.36 11.66 4 12 C3.13353333 10.56988027 2.28218171 9.13059381 1.4375 7.6875 C0.72400391 6.48673828 0.72400391 6.48673828 -0.00390625 5.26171875 C-1 3 -1 3 0 0 Z " fill="#2D6B97" transform="translate(23,97)"/>
<path d="M0 0 C0.66 0.33 1.32 0.66 2 1 C1.34 2.98 0.68 4.96 0 7 C0.66 7 1.32 7 2 7 C2.33 6.01 2.66 5.02 3 4 C3.66 4 4.32 4 5 4 C4.67 5.32 4.34 6.64 4 8 C2.68 8 1.36 8 0 8 C-0.33 8.99 -0.66 9.98 -1 11 C-1.33 11 -1.66 11 -2 11 C-2.28571429 3.57142857 -2.28571429 3.57142857 0 0 Z " fill="#378AB6" transform="translate(52,73)"/>
<path d="M0 0 C5.28 0 10.56 0 16 0 C16 0.66 16 1.32 16 2 C13 3 13 3 10 2 C4.66704568 1.656509 4.66704568 1.656509 0 4 C0 2.68 0 1.36 0 0 Z " fill="#CACACB" transform="translate(274,100)"/>
<path d="M0 0 C1.2065625 0.0309375 1.2065625 0.0309375 2.4375 0.0625 C1.93146008 2.23124252 1.43766187 4.06217627 0.4375 6.0625 C-0.5525 6.0625 -1.5425 6.0625 -2.5625 6.0625 C-2.94468767 4.40635343 -3.27645102 2.73792976 -3.5625 1.0625 C-2.5625 0.0625 -2.5625 0.0625 0 0 Z " fill="#E3E3E4" transform="translate(218.5625,75.9375)"/>
<path d="M0 0 C2.31 0 4.62 0 7 0 C7 0.66 7 1.32 7 2 C6.01 2 5.02 2 4 2 C3.67 2.66 3.34 3.32 3 4 C2.34 4 1.68 4 1 4 C0.67 4.66 0.34 5.32 0 6 C-0.66 6 -1.32 6 -2 6 C-1.49396008 3.83125748 -1.00016187 2.00032373 0 0 Z " fill="#2D9CD1" transform="translate(54,74)"/>
<path d="M0 0 C0.33 0 0.66 0 1 0 C1 1.98 1 3.96 1 6 C-2.3 6 -5.6 6 -9 6 C-9 5.01 -9 4.02 -9 3 C-7.68 2.67 -6.36 2.34 -5 2 C-4.67 2.99 -4.34 3.98 -4 5 C-2.68 5 -1.36 5 0 5 C0 3.35 0 1.7 0 0 Z " fill="#DFE0E2" transform="translate(254,86)"/>
<path d="M0 0 C-0.3125 1.9375 -0.3125 1.9375 -1 4 C-1.99 4.33 -2.98 4.66 -4 5 C-4.66 4.67 -5.32 4.34 -6 4 C-6.625 1.9375 -6.625 1.9375 -7 0 C-3.86650268 -1.04449911 -3.01031744 -0.93423645 0 0 Z " fill="#234F77" transform="translate(41,121)"/>
<path d="M0 0 C2.475 0.495 2.475 0.495 5 1 C4.690625 1.845625 4.38125 2.69125 4.0625 3.5625 C2.98461179 7.0497854 2.43418696 10.38177535 2 14 C1.67 14 1.34 14 1 14 C0.67 9.38 0.34 4.76 0 0 Z " fill="#D0D0D0" transform="translate(165,98)"/>
<path d="M0 0 C0.99 0.33 1.98 0.66 3 1 C3 2.65 3 4.3 3 6 C1.02 6.66 -0.96 7.32 -3 8 C-2.690625 7.236875 -2.38125 6.47375 -2.0625 5.6875 C-1.32106407 3.81210323 -0.63771783 1.91315348 0 0 Z " fill="#2880BD" transform="translate(45,91)"/>
<path d="M0 0 C0.66 0.33 1.32 0.66 2 1 C2 6.94 2 12.88 2 19 C1.01 19.33 0.02 19.66 -1 20 C-0.67 13.4 -0.34 6.8 0 0 Z " fill="#EDEDED" transform="translate(166,74)"/>
<path d="M0 0 C1.65 0 3.3 0 5 0 C4.1875 3.4375 4.1875 3.4375 3 7 C2.01 7.33 1.02 7.66 0 8 C0 5.36 0 2.72 0 0 Z " fill="#2E96CA" transform="translate(100,75)"/>
<path d="M0 0 C0.66 0.33 1.32 0.66 2 1 C2.125 5.75 2.125 5.75 1 8 C-0.32 8 -1.64 8 -3 8 C-2.45276317 4.62537285 -1.9451 2.91765 0 0 Z " fill="#ADAEAF" transform="translate(214,76)"/>
<path d="M0 0 C1.32 0.66 2.64 1.32 4 2 C2.515 4.475 2.515 4.475 1 7 C0.67 6.01 0.34 5.02 0 4 C-0.66 3.67 -1.32 3.34 -2 3 C-1.34 2.01 -0.68 1.02 0 0 Z " fill="#256696" transform="translate(49,98)"/>
<path d="M0 0 C2 2 2 2 2 6 C0.68 5.67 -0.64 5.34 -2 5 C-2.33 5.66 -2.66 6.32 -3 7 C-2.38722388 4.03824877 -1.74627478 2.61941217 0 0 Z " fill="#2A7BB6" transform="translate(51,93)"/>
<path d="M0 0 C2.475 0.495 2.475 0.495 5 1 C3.35 2.65 1.7 4.3 0 6 C0 4.02 0 2.04 0 0 Z " fill="#DFDFDF" transform="translate(211,84)"/>
<path d="M0 0 C0.66 0.33 1.32 0.66 2 1 C0.8141763 4.37503669 -0.27573689 6.64722731 -3 9 C-2.25 2.25 -2.25 2.25 0 0 Z " fill="#3B7BA6" transform="translate(43,93)"/>
<path d="M0 0 C-0.33 0.99 -0.66 1.98 -1 3 C-2.9375 3.8125 -2.9375 3.8125 -5 4 C-5.66 3.34 -6.32 2.68 -7 2 C-4 0 -4 0 0 0 Z " fill="#BBBBBC" transform="translate(223,73)"/>
</svg>
